<svg width="336" height="48" viewBox="0 0 336 48" xmlns="http://www.w3.org/2000/svg" xmlns:xlink="http://www.w3.org/1999/xlink"><defs><path d="M14.2354097 47.3870387V6.49955H0V0h35.8301032v6.49955H21.6274499v40.8874887h-7.3920402zm35.02757 0V6.5670567h-8.1836545V0h15.646667v47.3870387h-7.4630125zM82.393405 48c-5.0881694 0-9.3082928-1.5769577-12.6549107-4.7281728-3.3002129-3.1080108-4.9516842-6.939694-4.9516842-11.4977498 0-3.8343834 1.4549325-7.8712871 4.3675274-12.1107111L82.8055904 0h8.3911121l-8.7350549 12.4185419c-.6414805.950495-1.5695801 2.0630063-2.7842987 3.3321332l-.6551291.6480648-.9963422.950495c1.9271715-1.109811 3.9662609-1.6660666 6.1199978-1.6660666 4.4930939 0 8.2546269 1.4959496 11.2818693 4.4905491C98.4740951 23.189919 100 26.9648965 100 31.5013501c0 4.649865-1.626904 8.5382539-4.8834416 11.6678668C91.7917781 46.3906391 87.5525468 48 82.393405 48zm0-6.5994599c3.0272425 0 5.4785173-.9882989 7.3592838-2.959496 1.7661189-1.860486 2.6478135-4.1719172 2.6478135-6.939694 0-2.7893789-.8707758-5.1251125-2.6123274-7.0072007-1.8589288-2.019802-4.3238521-3.0270027-7.3947699-3.0270027-3.0026751 0-5.4457607.9963997-7.3237975 2.9918992-1.7879566 1.8820882-2.6832997 4.2313231-2.6832997 7.0423042 0 2.7434744.8953431 5.0576058 2.6832997 6.939694 1.8780368 1.9711971 4.3211224 2.959496 7.3237975 2.959496z" id="a"/><path d="M111.744772 23.9158925h-8.134781V6.9608945h8.134781c6.52063 0 9.780945 2.827613 9.780945 8.4748289 0 5.6525561-3.260315 8.4801691-9.780945 8.4801691m17.275402-8.4801691c0 6.7526284-3.169603 11.2250098-9.511477 13.4251544l11.024242 18.5330144h-8.334882l-10.117115-17.3555098h-8.470951v17.3555098h-7.2916866V.5340157h15.6959366c5.085238 0 9.119278 1.2015353 12.099452 3.6019358 3.270987 2.5792958 4.906481 6.3467764 4.906481 11.2997719zM20.0314625.0662179h.8404249l20.5037013 47.3271403h-7.5638248l-3.4604164-8.544251H10.4532858l-3.4284003 8.544251H0L20.0314625.0662179zm2.6226595 19.980197c-.4722388-1.0974023-.9764938-2.5232242-1.512765-4.2747956-.514927-1.4765534-.7950687-2.3523391-.840425-2.619347l-.7390403 2.4885131c-.5602833 1.8396841-1.0645383 3.3082272-1.512765 4.4056295l-5.1092502 12.7469544H27.728688l-5.074566-12.7469544zm44.5718715 9.6555376v-6.3601268h19.2604059V42.008344c-1.7929066 1.6180675-4.1140803 2.9531067-6.9581851 4.0024476C76.0544577 47.3351505 72.3112316 48 68.3012039 48c-7.2810151 0-13.2653745-2.2428659-17.9477421-6.7285977-4.6823677-4.5070923-7.0248856-10.2717917-7.0248856-17.2914279 0-6.9956055 2.2731495-12.733604 6.8221164-17.2220059C54.6329591 2.2535462 60.369193 0 67.3593943 0c7.3290393 0 12.851832 2.0826612 16.571046 6.2559938l-4.8744648 4.9102742c-1.4327245-1.5272849-3.0121898-2.656728-4.738396-3.3990098-1.9716637-.8063637-4.2901694-1.2095456-6.9581852-1.2095456-4.8611247 0-8.8604804 1.6474384-11.9980669 4.9449853-3.0708862 3.2975469-4.6049953 7.4575291-4.6049953 12.4772765 0 5.0491183 1.5794654 9.1984202 4.7410641 12.4479057 3.2709873 3.3616287 7.5398126 5.0437781 12.8038077 5.0437781 4.7277239 0 8.5589946-1.0092896 11.49648-3.0278689v-8.7418368H67.2259935zM155.695262.0662179h.840425l20.501033 47.3271403h-7.561156l-3.463085-8.544251h-19.898061l-3.428401 8.544251H135.6638L155.695262.0662179zm2.619992 19.980197c-.469571-1.0974023-.973826-2.5232242-1.512765-4.2747956-.514927-1.4765534-.795069-2.3523391-.837757-2.619347l-.741709 2.4885131c-.560283 1.8396841-1.064538 3.3082272-1.510096 4.4056295l-5.109251 12.7469544h14.788812l-5.077234-12.7469544zm41.449226.2686099c4.258153 1.8824052 7.305027 3.8369027 9.14329 5.8528119C210.967478 28.5228459 212 31.4839628 212 35.0511876c0 4.0104578-1.42472 7.2065417-4.268825 9.5829115-2.801417 2.2428659-6.443258 3.3642989-10.922857 3.3642989-4.191453 0-7.79861-.9638984-10.82414-2.8943651-2.619991-1.636758-4.637011-3.9009846-6.048392-6.7926795l5.981692-3.3322579c1.299323 2.1307226 2.654675 3.6793681 4.066056 4.6432664 1.838263 1.2789676 4.068724 1.9171163 6.688715 1.9171163 5.400064 0 8.100096-2.1414029 8.100096-6.4242087 0-1.8850754-.661668-3.4657618-1.982335-4.7393892-1.099223-1.0092897-3.046874-2.1333927-5.848291-3.3669689l-3.09223-1.3804306c-3.719214-1.6581187-6.408574-3.4310508-8.065412-5.313456-1.928975-2.1974746-2.892129-5.001057-2.892129-8.408077 0-3.4764421 1.221951-6.3254158 3.663186-8.544251C189.02038 1.122501 192.179311.001068 196.034594.001068c6.072404 0 10.47463 2.4564722 13.209346 7.3640763l-5.71489 3.5351839c-1.726206-3.0545697-4.223469-4.5791845-7.494456-4.5791845-4.03404 0-6.05106 1.8183234-6.05106 5.4496301 0 2.8062524 2.251805 5.1906324 6.755416 7.1638204l3.02553 1.3804306z" id="b"/></defs><g fill="#141414" fill-rule="evenodd"><use xlink:href="#a" transform="translate(236)"/><use xlink:href="#b"/></g></svg>