<svg width="263" height="38" viewBox="0 0 263 38" xmlns="http://www.w3.org/2000/svg" xmlns:xlink="http://www.w3.org/1999/xlink"><defs><path d="M88.5207076 18.9334149h-6.444118V5.5107081h6.444118c5.1654393 0 7.7481589 2.238527 7.7481589 6.7092396 0 4.4749402-2.5827196 6.7134672-7.7481589 6.7134672m13.6850324-6.7134672c0 5.3458308-2.51086 8.8864661-7.5346935 10.6282472l8.7330585 14.6719698h-6.6026318L88.7870109 23.780386h-6.7104213v13.7397787h-5.7762461V.4227624H88.734173c4.0283663 0 7.2240063.9512155 9.5848065 2.8515325 2.5911735 2.0419425 3.8867605 5.0245314 3.8867605 8.9456528zM15.8682971.0524225h.6657583L32.7764452 37.519742h-5.991825l-2.7412335-6.7641987H8.2807656L5.5648943 37.519742H0L15.8682971.0524225zm2.0775887 15.8176559c-.3740928-.8687767-.7735478-1.9975524-1.198365-3.3842131-.4079091-1.1689381-.6298286-1.8622685-.6657584-2.0736497l-.5854446 1.9700729c-.4438389 1.4564165-.8432939 2.6190132-1.198365 3.4877899l-4.047388 10.091339H21.965798l-4.0199122-10.091339zm35.3084404 7.6439673v-5.0351004h15.2574902v14.7776604c-1.4202844 1.2809701-3.2590456 2.3378761-5.5120563 3.1686043C60.247959 37.4736608 57.2826925 38 54.1060742 38c-5.7677921 0-10.5084141-1.7756022-14.2176391-5.3268065-3.709225-3.5681148-5.5648943-8.1318351-5.5648943-13.6890471 0-5.5381877 1.8007178-10.0807699 5.4042669-13.634088C43.2785188 1.7840574 47.8225836 0 53.3600021 0c5.8058354 0 10.1808187 1.6487734 13.1270636 4.9526617l-3.8613984 3.8873005c-1.1349594-1.2091005-2.3861624-2.103243-3.7536089-2.6908828-1.5618902-.6383713-3.3985378-.9575569-5.5120563-.9575569-3.8508307 0-7.018995 1.304222-9.5044928 3.91478-2.4326598 2.6105579-3.6479329 5.9038772-3.6479329 9.8778439 0 3.9972187 1.2512029 7.2820827 3.7557224 9.854592 2.5911737 2.6612894 5.9728033 3.992991 10.1427754 3.992991 3.7451548 0 6.7801674-.7990209 9.1071513-2.3970629v-6.9206208h-9.9588993zM123.33691.0524225h.665758l16.240276 37.4673194h-5.989711l-2.743347-6.7641987h-15.762621l-2.715872 6.7641987h-5.562781L123.33691.0524225zm2.075475 15.8176559c-.37198-.8687767-.771435-1.9975524-1.198365-3.3842131-.407909-1.1689381-.629829-1.8622685-.663645-2.0736497l-.587558 1.9700729c-.443839 1.4564165-.843294 2.6190132-1.196252 3.4877899l-4.047388 10.091339h11.715233l-4.022025-10.091339zm32.834778.2126495c3.373176 1.4902376 5.786814 3.037548 7.243028 4.6334761 1.631636 1.8643823 2.449568 4.2085999 2.449568 7.0326529 0 3.1749457-1.128619 5.7051788-3.38163 7.5864716-2.219194 1.7756021-5.104147 2.6634032-8.652744 2.6634032-3.320338 0-6.177815-.7630862-8.574545-2.2913723-2.075475-1.2957668-3.673295-3.0882795-4.791347-5.377538l4.738509-2.6380375c1.029283 1.6868221 2.102951 2.9128331 3.221002 3.6759193 1.456214 1.012516 3.223116 1.5177171 5.298591 1.5177171 4.277762 0 6.416642-1.6952773 6.416642-5.0858319 0-1.4923514-.524152-2.7437281-1.570344-3.7520165-.87077-.799021-2.413638-1.6889359-4.632833-2.6655171l-2.449567-1.0928408c-2.946245-1.3126773-5.076672-2.7162485-6.389167-4.2064861-1.528074-1.7396673-2.291054-3.95917-2.291054-6.6563942 0-2.7521834.967991-5.0076209 2.901861-6.7641988C149.736024.8886467 152.23843.0008456 155.292464.0008456c4.810368 0 8.297674 1.9447071 10.46403 5.8298938l-4.527156 2.7986872c-1.367447-2.418201-3.3457-3.6251877-5.936874-3.6251877-3.19564 0-4.79346 1.439506-4.79346 4.3142904 0 2.2216165 1.78381 4.1092507 5.351429 5.6713579l2.39673 1.0928408z" id="a"/></defs><g fill="#3B3E40" fill-rule="evenodd"><path d="M195.059978 37.514739V5.145477h-11.276845V0h28.383485v5.145477h-11.250897v32.369262h-5.855743zm27.747744 0V5.1989199h-6.482835V0h12.3948v37.514739h-5.911965zM249.052607 38c-4.030688 0-7.373738-1.2484248-10.024824-3.7431368-2.614325-2.4605086-3.922569-5.4939244-3.922569-9.1023853 0-3.0355535 1.152552-6.2314356 3.459818-9.5876462L249.379127 0h6.647176l-6.919636 9.8313456c-.508161.7524753-1.243373 1.6332134-2.205635 2.6379388-.18164.179568-.354631.3505851-.518972.5130513l-.789271.7524753c1.526644-.8786004 3.141947-1.3189694 4.84807-1.3189694 3.559288 0 6.539057 1.1842934 8.937144 3.555018C261.791226 18.3586859 263 21.3472097 263 24.9385689c0 3.6811431-1.288782 6.7594509-3.868509 9.2370612C256.497704 36.7259226 253.139518 38 249.052607 38zm0-5.2245725c2.398087 0 4.33991-.7824032 5.829794-2.3429343 1.399064-1.4728847 2.097515-3.3027677 2.097515-5.4939243 0-2.2082584-.689801-4.0573808-2.069404-5.5473673-1.472585-1.5990099-3.42522-2.3963771-5.857905-2.3963771-2.378625 0-4.313961.7888164-5.801683 2.3685868-1.416363 1.4899865-2.125626 3.3497975-2.125626 5.5751576 0 2.1719171.709263 4.0039379 2.125626 5.4939243 1.487722 1.5605311 3.423058 2.3429343 5.801683 2.3429343z"/><use xlink:href="#a"/></g></svg>